<svg width="64px" height="64px" viewBox="0 0 21 15" xmlns="http://www.w3.org/2000/svg"><defs><linearGradient x1="50%" y1="0%" x2="50%" y2="100%" id="CN_svg__a_284"><stop stop-color="#FFF" offset="0%"></stop><stop stop-color="#F0F0F0" offset="100%"></stop></linearGradient><linearGradient x1="50%" y1="0%" x2="50%" y2="100%" id="CN_svg__b_285"><stop stop-color="#F1361D" offset="0%"></stop><stop stop-color="#DF2910" offset="100%"></stop></linearGradient><linearGradient x1="37.059%" y1="1.704%" x2="62.941%" y2="98.296%" id="CN_svg__c_286"><stop stop-color="#FFDC42" offset="0%"></stop><stop stop-color="#FDD217" offset="100%"></stop></linearGradient><linearGradient x1="50%" y1="0%" x2="50%" y2="100%" id="CN_svg__d_287"><stop stop-color="#FFDC42" offset="0%"></stop><stop stop-color="#FDD217" offset="100%"></stop></linearGradient></defs><g fill="none" fill-rule="evenodd"><path fill="url(#CN_svg__a_284)" d="M0 0h21v15H0z"></path><path fill="url(#CN_svg__b_285)" d="M0 0h21v15H0z"></path><path d="M10.13 4.483l-.63.383.017-.737-.383-.629.737.017.629-.383-.017.737.383.629-.737-.017zM8.28 2.449l-.726-.123.497-.545.123-.727.545.497.727.123-.497.545-.123.727-.545-.497zm.366 6.53l-.615.404-.01-.737-.404-.615.737-.01.615-.404.01.737.404.615-.737.01zm1.267-1.987l-.732.082.327-.66-.082-.733.66.327.733-.082-.327.66.082.733-.66-.327z" fill="url(#CN_svg__c_286)"></path><path fill="url(#CN_svg__d_287)" d="M5 6.17L3.237 7.427l.65-2.065-1.74-1.29 2.165-.019L5 2l.688 2.053 2.165.02-1.74 1.289.65 2.065z"></path></g></svg>